<?xml version="1.0"?>
<svg id="Ebene_1" xmlns="http://www.w3.org/2000/svg" version="1.1" viewBox="0 0 745.02 207.48">
  
  <defs>
    
    
  </defs>
  <g id="IL_Claim">
    <path fill="#4A4A49" d="M147.79,156.25c0-4.4,1.61-7.85,6.48-7.85,1.49,0,2.55.39,2.55.39.24.08.39.27.39.47s-.39,3.14-.39,3.14c-.04.16-.24.31-.39.31-.24,0-.78-.39-2.16-.39-1.3,0-1.77,1.33-1.77,3.92v2.35h3.92c.24,0,.39.16.39.39,0,.12-.39,3.14-.39,3.14-.04.24-.2.39-.39.39h-3.53v12.56c0,1.57-.39,2.75-.39,2.75-.08.24-.24.39-.39.39h-3.92c-.24,0-.39-.16-.39-.39,0-.16.39-1.18.39-2.75v-18.84h0ZM177.97,158.6c0-.24-.16-.39-.39-.39l-3.93.39c-.2,0-.39.16-.39.39v10.6c0,3.14-1.84,4.71-5.1,4.71-1.96,0-3.14-.78-3.14-4.71v-10.99c0-.24-.16-.39-.39-.39l-3.93.39c-.23.04-.39.16-.39.39v10.6c0,5.89,1.57,8.63,7.85,8.63,3.53,0,5.26-2.24,5.26-2.24l.23,1.45c.04.24.24.39.39.39h3.92c.24,0,.39-.16.39-.39,0-.16-.39-1.18-.39-2.75v-16.09h0ZM173.07,149.92c-1.53,0-2.75,1.22-2.75,2.75s1.22,2.75,2.75,2.75,2.75-1.22,2.75-2.75-1.22-2.75-2.75-2.75h0ZM162.47,152.67c0,1.53,1.22,2.75,2.75,2.75s2.75-1.22,2.75-2.75-1.22-2.75-2.75-2.75-2.75,1.22-2.75,2.75h0ZM196.14,158.99c-.04-.2-.24-.35-.39-.39,0,0-1.57-.39-2.75-.39-2.75,0-4.32,1.22-5.18,2.16l-.31-1.37c-.04-.24-.24-.39-.39-.39h-3.92c-.24,0-.39.16-.39.39,0,.16.39,1.18.39,2.75v16.09c0,.24.16.39.39.39h3.92c.24,0,.39-.16.39-.39v-10.99c0-3.1,1.84-4.71,5.1-4.71.67,0,2.94.39,3.14.39.23,0,.39-.16.39-.39,0-.16-.39-3.14-.39-3.14h0Z"></path>
    <path fill="#4A4A49" d="M331.86,177.83v-16.09c0-1.57-.39-2.59-.39-2.75,0-.24.16-.39.39-.39h3.93c.16,0,.35.16.39.39l.23,1.45s1.73-2.24,5.26-2.24c3.81,0,5.89,1.02,6.91,3.14.63-.86,2.51-3.14,6.04-3.14,6.28,0,7.85,2.75,7.85,8.63v10.99c0,.24-.16.39-.39.39h-3.93c-.24,0-.39-.16-.39-.39v-10.99c0-3.92-1.18-4.71-3.14-4.71-3.45,0-5.1,1.57-5.1,4.71v10.99c0,.24-.16.39-.39.39h-3.93c-.24,0-.39-.16-.39-.39v-10.99c0-3.92-1.18-4.71-3.14-4.71-3.53,0-5.1,1.57-5.1,4.71v10.99c0,.24-.16.39-.39.39h-3.93c-.24,0-.39-.16-.39-.39h0ZM401.05,173.91c-.04-.23-.2-.39-.39-.39s-2.55.78-5.5.78c-4.51,0-5.49-2.71-5.49-6.28s.59-6.28,5.49-6.28c2.75,0,5.69,1.18,5.89,1.18.23,0,.39-.16.39-.39,0-.16-.39-3.14-.39-3.14-.04-.16-.2-.31-.39-.39,0,0-2.55-1.18-5.5-1.18-8.63,0-10.2,4.59-10.2,10.2s1.57,10.2,10.2,10.2c2.63,0,5.57-.67,5.89-.78.23-.04.39-.2.39-.39,0-.16-.39-3.14-.39-3.14h0ZM409.16,149.18c0-.24-.16-.39-.39-.39l-3.92.39c-.24,0-.39.16-.39.39v25.51c0,1.57-.39,2.59-.39,2.75,0,.24.16.39.39.39h3.93c.16,0,.31-.16.39-.39,0,0,.39-1.18.39-2.75v-8.24c0-3.14,1.84-4.71,5.1-4.71,2.75,0,3.14,1.96,3.14,4.71v10.99c0,.24.16.39.39.39h3.92c.24,0,.39-.16.39-.39v-10.99c0-5.5-1.18-8.63-7.85-8.63-3.14,0-5.1,1.96-5.1,1.96v-10.99h0ZM429.86,158.21v-7.46c0-.24-.16-.39-.39-.39l-3.92.39c-.24,0-.39.16-.39.39v19.23c0,4.36,1.41,7.85,6.28,7.85,1.57,0,3.14-.39,3.14-.39.24-.08.39-.27.39-.47s-.39-3.14-.39-3.14c-.04-.16-.24-.31-.39-.31-.2,0-1.61.39-2.36.39-1.3,0-1.96-1.33-1.96-3.92v-8.24h4.32c.23,0,.39-.16.39-.39,0-.12-.39-3.14-.39-3.14-.04-.24-.2-.39-.39-.39h-3.93ZM307.58,158.94c0,.24-.39,1.18-.39,3.14v16.09c0,5.53-1.57,9.03-9.81,9.03-3.85,0-6.67-1.18-6.67-1.18-.2-.08-.35-.24-.39-.39,0,0-.39-3.06-.39-3.14,0-.24.16-.39.39-.39.2,0,3.73,1.18,7.06,1.18,4.91,0,5.1-2.79,5.1-5.1v-1.57s-1.77,1.96-5.1,1.96c-7.89,0-9.03-4.59-9.03-10.2s1.14-10.2,9.03-10.2c2.94,0,5.22,2.08,5.22,2.08,0,0,.24-1.02.28-1.3.08-.24.23-.39.39-.39h3.92c.24,0,.39.16.39.39ZM302.48,168.36c-.08-3.81-1.1-6.28-5.1-6.28-3.61,0-4.32,2.75-4.32,6.28s.71,6.28,4.32,6.28c4,0,5.1-2.75,5.1-6.28ZM328.9,168.02v1.57c0,.2-.2.39-.43.39h-13.15c.31,2.51,1.37,4.32,5.3,4.32,3.14,0,6.48-.78,6.67-.78.24,0,.39.16.39.39,0,.12-.39,3.14-.39,3.14-.04.2-.16.35-.39.39,0,0-2.75.78-6.28.78-8.44,0-10.2-4.59-10.2-10.2s1.81-10.17,9.81-10.17c5.57,0,8.67,3.1,8.67,10.17ZM324.11,166.06c-.16-2.2-1.14-4.32-3.89-4.32-3.73,0-4.63,1.85-4.9,4.32h8.79ZM382.82,177.44c0,.23-.16.39-.39.39h-3.93c-.16,0-.31-.12-.39-.39l-.2-1.18c-.78.86-2.47,1.96-5.69,1.96-2.39,0-7.07-1.18-7.07-6.28,0-4.04,3.1-6.28,8.24-6.28,1.14,0,4.32.39,4.32.39v-1.73c0-1.53-1.34-2.59-3.93-2.59-2.75,0-6.67,1.57-7.06,1.57-.24,0-.39-.16-.39-.39,0-.08.39-3.14.39-3.14.04-.16.2-.31.39-.39.16-.08,3.49-1.57,6.67-1.57,5.14,0,8.63,2.35,8.63,6.28v10.2c0,1.96.39,2.94.39,3.14ZM377.72,169.59h-4.32c-1.92,0-3.53.94-3.53,2.35,0,2.12,1.45,2.35,2.35,2.35,2.63,0,5.5-.31,5.5-3.92v-.78Z"></path>
    <path fill="#4A4A49" d="M128.17,174.68c0,1.57.4,2.76.4,2.76.08.23.23.4.39.4h3.94c.24,0,.4-.16.4-.4,0-.16-.4-1.18-.4-2.76v-26.02c0-.24-.15-.4-.39-.4l-3.94.4c-.24,0-.4.16-.4.39v25.62ZM116.29,161.69c-3.74,0-4.64,1.85-4.92,4.33h8.82c-.16-2.2-1.14-4.33-3.9-4.33M124.55,169.96h-13.18c.32,2.52,1.38,4.33,5.32,4.33,3.15,0,6.49-.79,6.69-.79.24,0,.39.16.39.39l-.39,3.15c-.04.2-.15.36-.39.4,0,0-2.76.79-6.3.79-8.46,0-10.24-4.61-10.24-10.24s1.81-10.19,9.84-10.19c5.59,0,8.7,3.11,8.7,10.19v1.58c0,.2-.2.4-.43.4M99.21,167.99c0,3.54-.71,6.3-4.33,6.3-4.01,0-5.04-2.48-5.12-6.3,0-3.54,1.1-6.3,5.12-6.3,3.62,0,4.33,2.76,4.33,6.3M103.93,167.99c0-5.63-1.14-10.23-9.05-10.23-2.4,0-4.17,1.14-5.12,1.97v-11.02c0-.23-.2-.39-.4-.39-.23,0-3.94.39-3.94.39-.23.04-.39.16-.39.4v25.19c0,1.97-.39,2.91-.39,3.15s.15.4.39.4h3.94c.16,0,.32-.16.39-.4.04-.28.28-1.3.28-1.3,0,0,2.28,2.09,5.24,2.09,7.91,0,9.05-4.61,9.05-10.24M68.13,149.88c1.54,0,2.76,1.22,2.76,2.76s-1.22,2.76-2.76,2.76-2.75-1.22-2.75-2.76,1.22-2.76,2.75-2.76M73.25,152.64c0,1.53,1.22,2.76,2.76,2.76s2.75-1.22,2.75-2.76-1.22-2.76-2.75-2.76-2.76,1.22-2.76,2.76M72.07,161.69c-3.94,0-5.12,2.36-5.12,6.3s1.18,6.3,5.12,6.3,5.12-2.36,5.12-6.3-1.18-6.3-5.12-6.3M72.07,178.23c-5.9,0-9.84-3.15-9.84-10.24s3.94-10.23,9.84-10.23,9.84,3.15,9.84,10.23-3.94,10.24-9.84,10.24M45.79,177.83c.2,0,.31-.16.39-.4l6.69-18.89.79-3.54v22.43c0,.23.16.4.39.4h3.94c.23,0,.39-.16.39-.4v-26.77c0-.23-.16-.39-.39-.39h-2.95l-3.74.39-.39.4-6.69,18.89-.39,2.76-.4-2.76-6.69-19.29c-.08-.23-.23-.39-.39-.39h-3.54l-3.15.39c-.23,0-.39.16-.39.4v26.37c0,.23.16.4.39.4h3.94c.23,0,.39-.16.39-.4v-22.43l.79,3.54,6.69,18.89c.08.23.2.4.39.4h3.94Z"></path>
    <path fill="#4A4A49" d="M230.97,175.09v-15.7c0-.24.16-.39.39-.39l3.92-.39c.24,0,.39.16.39.39v16.09c0,1.57.39,2.59.39,2.75,0,.24-.16.39-.39.39h-3.92c-.16,0-.31-.16-.39-.39,0,0-.39-1.18-.39-2.75h0ZM233.32,149.62c-1.53,0-2.75,1.22-2.75,2.75s1.22,2.75,2.75,2.75,2.75-1.22,2.75-2.75-1.22-2.75-2.75-2.75h0ZM254.6,173.51c-.2,0-2.55.78-5.5.78-4.51,0-5.49-2.71-5.49-6.28s.59-6.28,5.49-6.28c2.75,0,5.69,1.18,5.89,1.18.24,0,.39-.16.39-.39,0-.16-.39-3.14-.39-3.14-.04-.16-.2-.31-.39-.39,0,0-2.55-1.18-5.5-1.18-8.63,0-10.2,4.59-10.2,10.2s1.57,10.2,10.2,10.2c2.63,0,5.57-.67,5.89-.78.24-.04.39-.2.39-.39,0-.16-.39-3.14-.39-3.14-.04-.23-.2-.39-.39-.39h0ZM263.11,160.17v-10.99c0-.24-.16-.39-.39-.39l-3.92.39c-.24,0-.39.16-.39.39v25.51c0,1.57-.39,2.59-.39,2.75,0,.24.16.39.39.39h3.92c.16,0,.31-.16.39-.39,0,0,.39-1.18.39-2.75v-8.24c0-3.14,1.84-4.71,5.1-4.71,2.75,0,3.14,1.96,3.14,4.71v10.99c0,.24.16.39.39.39h3.92c.24,0,.39-.16.39-.39v-10.99c0-5.5-1.18-8.63-7.85-8.63-3.14,0-5.1,1.96-5.1,1.96h0ZM216.03,157.46c2.44,0,4.23,1.16,5.19,2v-10.47c0-.24.13-.55.4-.57.23-.02,3.99-.37,3.99-.37.28,0,.4.16.4.4v25.78c0,1.99.4,2.96.4,3.19,0,.24-.16.4-.4.4h-3.99c-.16,0-.32-.16-.4-.4-.04-.28-.28-1.32-.28-1.32,0,0-2.32,2.12-5.31,2.12-8.03,0-9.18-4.68-9.18-10.39s1.16-10.38,9.18-10.38ZM216.03,174.23c4.07,0,5.11-2.52,5.19-6.39,0-3.59-1.12-6.39-5.19-6.39-3.67,0-4.39,2.8-4.39,6.39s.72,6.39,4.39,6.39Z"></path>
  </g>
  <g>
    <path fill="#4A4A49" d="M238.16,56.33c0-8.55-3.04-15.35-9.02-20.18-8.16-6.71-18.62-6.86-27.84-6.99h-27.96c-3.33,0-8.35,0-11.71,3.51-3.37,3.37-3.37,8.6-3.37,11.71v71.94c0,3.5,0,10.81,7.08,13.52,1.67.49,3.1.72,4.63.72,4.01,0,7.07-1.44,9.1-4.27,2.15-3.02,2.33-6.73,2.33-9.97v-23.56h14.84c9.78.14,13.65,1.24,15.42,12.25.37,2.1.63,4.19.88,6.21l.1.79c1.09,7.38,2.75,18.53,14.8,18.53,7.04,0,10.72-4.83,10.72-9.6,0-.44,0-1.48-.57-3.2-.19-.79-.52-1.57-.84-2.33-.15-.36-.3-.73-.43-1.08-.51-1.54-.79-3.2-1.05-4.79l-.05-.34c-.19-1.24-.36-2.45-.53-3.65-.19-1.38-.37-2.73-.6-4.08-1.37-8.64-2.93-15.52-9.39-18.89-1.04-.52-2.27-.98-3.73-1.39,1.31-.35,2.55-.78,3.7-1.26,8.71-3.5,13.5-11.89,13.5-23.61M209.92,71.52h0c-3.96,2.46-8.68,2.46-13.24,2.46h-15.26v-25.33h15.54c7.21,0,12.58.29,15.94,4.05,2.55,2.98,2.55,6.74,2.55,7.98,0,4.91-1.97,8.76-5.53,10.84"></path>
    <path fill="#4A4A49" d="M276.33,54.03c-22.2,0-37.71,16.02-37.71,38.97,0,17.72,9.8,38.4,37.43,38.4,9.27,0,16.96-2.15,22.9-6.41,3.87-2.7,5.82-5.85,5.82-9.37,0-5.29-4.4-9.75-9.6-9.75-2.29,0-4.43.85-6.31,2.48-.77.55-1.39,1.19-1.98,1.81-.2.21-.4.41-.59.62-1.6,1.46-4.33,3.39-9.66,3.39-1.65,0-6.68,0-11.04-4.63-3.04-3.17-3.85-6.94-4.3-10.3h39.72c3.68-.13,9.25-.34,9.25-10.17,0-13.01-7.16-35.03-33.92-35.03M261.39,82.98c1.54-4.63,4.24-11.98,14.52-11.98,3.53,0,8.38.94,11.4,5.4,1.3,2,1.77,4.13,2.24,6.2l.09.38h-28.25Z"></path>
    <path fill="#4A4A49" d="M370.01,58.03h0c-3.83-2.35-8.06-3.44-13.31-3.44-7.53,0-13.94,2.55-19.06,7.6v-20.61c0-3.48,0-9.95-6.61-12.66-1.78-.74-3.23-.74-4.4-.74-2.66,0-5.4.99-7.35,2.66-2.99,2.85-3.24,6.37-3.24,10.04v76.57c0,3.85,0,10.28,6.93,12.39.8.26,2.14.58,3.94.58,3.49,0,6.46-1.36,8.39-3.85,2.16-2.88,2.35-6.73,2.35-10.12v-26.55c0-4.13,0-11.03,5.26-14.78,1.3-.86,3.47-1.89,6.49-1.89,10.34,0,10.34,9.36,10.34,15.54v29.06c.14,3.32.31,7.44,3.54,10.22,1.8,1.5,4.47,2.36,7.33,2.36,3.02,0,5.74-1.05,7.66-2.97,2.58-2.87,2.79-6.51,2.79-10.01v-35.95c-.14-6.71-.34-16.85-11.03-23.46"></path>
    <path fill="#4A4A49" d="M471.34,54.18c-12.05,0-17.58,5.95-21.7,11.76-2.14-4.48-6.28-11.76-19.89-11.76-12.35,0-17.13,6.67-19.18,10.34-.81-3.73-2.8-9.49-10.6-9.49-4.24,0-6.75,2.07-7.65,2.97-2.62,2.9-2.79,6.7-2.93,9.87v49.46c0,3.75,0,10.04,6.93,12.39,1.76.58,3.23.58,3.94.58,4.16,0,6.69-1.84,8.1-3.41,2.29-2.87,2.49-6.58,2.49-9.84v-27.38c.13-4.62.31-10.37,4.31-13.7,1.84-1.43,4.05-2.15,6.59-2.15,8.79,0,9.92,8.09,9.92,15.12v27.54c0,3.8,0,10.87,6.95,13.24.94.27,2.24.58,4.06.58,10.58,0,10.58-9.53,10.58-13.12v-29.79c0-3.82.23-7.49,2.97-10.5,1.83-2.04,4.4-3.07,7.66-3.07,9.04,0,10.2,7.33,10.2,13.72v29.78c0,3.58.23,7.31,2.94,10.01,1.67,1.85,4.58,2.97,7.79,2.97,3.63,0,6.44-1.24,8.39-3.7,2.35-3.08,2.35-6.37,2.35-9.56v-31.89c0-8.91,0-17.32-6.03-23.78-4.24-4.63-10.7-7.18-18.2-7.18"></path>
    <path fill="#4A4A49" d="M563.39,60.75c-3.36-2.89-9.46-6.72-23.49-6.72-24.56,0-31.11,10.55-31.11,16.77,0,5.67,4.99,9.18,9.6,9.18,4.25,0,6.91-3.05,7.96-4.26,1.96-2.61,3.65-4.87,11.85-4.87,2.77,0,11.19,0,11.19,5.85,0,3.23-2.19,4.1-9.72,5.44-15.9,2.67-21.69,3.78-27.42,7.37-2.37,1.48-5.77,4.06-7.78,9.22-1.06,2.76-1.58,5.67-1.58,8.88,0,14.37,10.17,23.66,25.91,23.66,6.79,0,13.07-1.87,18.68-5.56,1.36-.94,2.18-1.72,3.12-2.63.19-.19.39-.37.6-.56,1.07,3.1,3.16,7.92,9.77,7.92,10.34,0,10.58-10.24,10.72-15.74v-30.39c0-6.98,0-16.52-8.31-23.55M550.25,105.1l-.1.16c-1.13,1.84-2.83,4.64-7.92,6.99-3.58,1.72-6.49,1.92-8.37,1.92-5.68,0-9.22-2.78-9.22-7.26,0-6.45,6.96-7.98,12.55-9.21l.13-.03c8.65-1.68,10.31-2.16,12.92-3.26v10.67h0Z"></path>
    <path fill="#4A4A49" d="M632.2,58.33h-.02c-4.4-2.94-9.17-4.31-15.01-4.31-11.15,0-16.79,6.43-19.29,9.74-.58-2.66-1.69-6.21-6.13-8.02-2.05-.73-3.67-.73-4.38-.73-2.69,0-5.01.74-6.9,2.22-3.41,2.84-3.68,6.36-3.68,10.34v50.19c.15,3.75.38,10.04,6.9,12.07.45.18,1.73.59,3.83.59,3.12,0,6.01-1.18,7.94-3.25,2.37-2.64,2.5-5.96,2.62-8.89l.03-29.78c0-4.94.39-10.08,5-13.67,2.02-1.48,4.62-2.29,7.31-2.29,4.13,0,7.33,1.9,8.99,5.36,1.39,2.76,1.5,5.83,1.5,8.5v31.19c0,2.31,0,6.63,2.81,9.74,1.16,1.16,3.72,3.09,7.92,3.09,4.92,0,7.45-2.41,8.52-3.83,2.17-2.75,2.35-6.23,2.35-9.56v-35.69c0-5.06,0-15.57-10.31-23.01"></path>
    <path fill="#4A4A49" d="M705.55,58.33h-.02c-4.39-2.94-9.16-4.31-15.01-4.31-11.16,0-16.79,6.43-19.29,9.74-.59-2.66-1.69-6.21-6.13-8.02-2.05-.73-3.68-.73-4.38-.73-2.69,0-5.01.74-6.9,2.22-3.41,2.83-3.68,6.36-3.68,10.34v50.18c.15,3.76.38,10.04,6.9,12.07.45.18,1.73.59,3.83.59,3.16,0,5.98-1.15,7.94-3.25,2.36-2.64,2.5-5.95,2.62-8.87l.03-29.8c0-4.94.39-10.08,5-13.67,2.02-1.48,4.62-2.29,7.31-2.29,4.13,0,7.33,1.9,8.99,5.36,1.39,2.76,1.5,5.83,1.5,8.5v31.19c0,2.31,0,6.63,2.81,9.74,1.16,1.15,3.72,3.09,7.92,3.09,4.92,0,7.45-2.41,8.52-3.83,2.17-2.75,2.35-6.23,2.35-9.56v-35.69c0-5.06,0-15.57-10.32-23.01"></path>
  </g>
  <g id="IL_Logo">
    <path fill="#4A4A49" d="M130.68,122.17V37.65s0-8.45-8.45-8.45H37.71s-8.45,0-8.45,8.45v84.52s0,8.45,8.45,8.45h84.52s8.45,0,8.45-8.45"></path>
    <path fill="#FFFFFF" d="M81.07,92.93c0-.25.17-.42.42-.42h4.18c.16,0,.37.17.42.42l.25,1.54s1.84-2.38,5.59-2.38c6.68,0,8.35,2.92,8.35,9.18v11.69c0,.25-.17.42-.42.42h-4.18c-.25,0-.42-.17-.42-.42v-11.69c0-4.18-1.25-5.01-3.34-5.01-3.75,0-5.43,1.67-5.43,5.01v11.69c0,.25-.17.42-.42.42h-4.17c-.25,0-.42-.17-.42-.42v-17.12c0-1.67-.42-2.75-.42-2.92M45.86,102.18v10.78c0,.25.17.42.42.42h4.18c.25,0,.42-.17.42-.42v-20.04c0-.25-.17-.42-.42-.42l-4.18.42c-.25,0-.42.16-.42.42v8.84ZM37.71,85.06c0-.25.17-.42.42-.42l4.17-.42c.25,0,.42.17.42.42v28.32c0,.25-.17.42-.42.42h-4.17c-.25,0-.42-.17-.42-.42v-27.9ZM37.71,81.27c0,.25.17.41.42.41l4.17-.41c.25,0,.42-.17.42-.42v-13.28c0-.25-.17-.42-.42-.42l-4.17.42c-.25,0-.42.17-.42.42v13.28ZM43.17,61.31c0,1.64-1.31,2.95-2.96,2.95s-2.96-1.31-2.96-2.95,1.31-2.96,2.96-2.96,2.96,1.31,2.96,2.96M64.7,75.92c0-6.26-1.67-9.19-8.35-9.19-3.76,0-5.59,2.38-5.59,2.38l-.25-1.54c-.04-.25-.25-.42-.42-.42h-4.17c-.25,0-.42.17-.42.42,0,.17.42,1.25.42,2.92v17.11c0,.25.17.42.42.42h4.18c.25,0,.42-.17.42-.42v-11.69c0-3.34,1.67-5.01,5.43-5.01,2.09,0,3.34.83,3.34,5.01v11.69c0,.25.17.42.42.42h4.17c.25,0,.42-.17.42-.42v-11.69ZM67.65,92.51h4.38c.25,0,.42.17.42.42,0,.16-7.51,20.04-7.51,20.04-.08.25-.21.42-.42.42h-5.01c-.21,0-.34-.17-.42-.42,0,0-7.31-19.45-7.31-19.62,0-.29.17-.38.42-.42,0,0,3.97-.42,4.18-.42.16,0,.33.17.42.42l4.76,13.36.46,1.23.46-1.23,4.76-13.36c.08-.25.25-.42.42-.42M77.69,84.18c-.04-.17-.25-.34-.42-.34-.21,0-1.71.42-2.5.42-1.38,0-2.09-1.42-2.09-4.18v-8.76h4.17c.25,0,.42-.17.42-.42,0-.12-.42-3.34-.42-3.34-.04-.25-.21-.42-.42-.42h-3.75v-7.93c0-.25-.16-.42-.42-.42l-4.17.42c-.25,0-.42.17-.42.42v20.45c0,4.63,1.5,8.35,6.68,8.35,1.67,0,3.34-.42,3.34-.42.25-.09.42-.29.42-.5s-.42-3.34-.42-3.34M78.33,112.96c0,.25-.17.42-.42.42h-4.17c-.25,0-.42-.17-.42-.42v-19.62c0-.25.17-.42.42-.42l4.17-.42c.25,0,.42.17.42.42v20.04ZM97.93,79.67h-13.98c.33,2.67,1.46,4.59,5.63,4.59,3.34,0,6.89-.84,7.1-.84.25,0,.42.17.42.42,0,.12-.42,3.34-.42,3.34-.04.21-.17.37-.42.42,0,0-2.92.84-6.68.84-8.98,0-10.85-4.88-10.85-10.86s1.92-10.81,10.43-10.81c5.93,0,9.23,3.3,9.23,10.81v1.67c0,.21-.21.42-.46.42M89.16,70.91c-3.96,0-4.92,1.96-5.22,4.59h9.35c-.17-2.34-1.21-4.59-4.14-4.59M112.09,67.19s-.19,3.12-.19,3.29c0,.25-.17.42-.42.42-.21,0-.68.02-.68.02-3.47,0-5.43,1.71-5.43,5.01v11.69c0,.25-.17.42-.42.42h-4.17c-.25,0-.42-.17-.42-.42v-17.11c0-1.67-.42-2.75-.42-2.92,0-.25.17-.42.42-.42h4.17c.17,0,.37.17.42.42l.34,1.46c.92-1,2.59-2.3,5.51-2.3,1.25,0,.87.04.87.04.16.04.37.21.42.42M122.23,96.26v17.11c0,5.89-1.67,9.6-10.44,9.6-4.09,0-7.1-1.25-7.1-1.25-.21-.08-.38-.25-.42-.42,0,0-.42-3.25-.42-3.34,0-.25.17-.42.42-.42.21,0,3.97,1.25,7.51,1.25,5.22,0,5.43-2.96,5.43-5.43v-1.67s-1.88,2.09-5.43,2.09c-8.39,0-9.6-4.88-9.6-10.85s1.21-10.85,9.6-10.85c3.13,0,5.55,2.21,5.55,2.21,0,0,.25-1.09.29-1.38.09-.25.25-.42.42-.42h4.17c.25,0,.42.17.42.42s-.42,1.25-.42,3.34M111.79,96.26c-3.84,0-4.59,2.92-4.59,6.68s.75,6.68,4.59,6.68c4.26,0,5.43-2.92,5.43-6.68-.08-4.05-1.17-6.68-5.43-6.68"></path>
  </g>
</svg>